# xmcd CD database file
#
# Track frame offsets:
#	302
#	33957
#	60105
#	85032
#	108840
#	136323
#	162377
#	175846
#	204367
#
# Disc length: 3101 seconds
#
# Revision: 0
# Processed by: cddbd v1.5.1PL2 Copyright (c) Steve Scherf et al.
# Submitted via: CDex 1.51
#
DISCID=660c1909
DTITLE=Frédéric Favarel - Quelques Chansons... Et Autres Transformations
DYEAR=2005
DGENRE=Jazz
TTITLE0=Yesterdays
TTITLE1=Long Ago and Far Away
TTITLE2=Like Someone In Love
TTITLE3=Someone To Watch Over Me
TTITLE4=The Way You Look Tonight
TTITLE5=Very Late
TTITLE6=Moment's Notice
TTITLE7=Summer Night
TTITLE8=Alone Together
EXTD=YEAR: 2005
EXTT0=
EXTT1=
EXTT2=
EXTT3=
EXTT4=
EXTT5=
EXTT6=
EXTT7=
EXTT8=
PLAYORDER=
